<svg version="1.1" id="Layer_1" x="0px" y="0px" viewBox="55.17 -10.785 399.884 398.225" style="enable-background:new 0 0 511.885 511.885;" xmlns="http://www.w3.org/2000/svg">
  <ellipse style="fill:#3d4f5d" cx="255.81" cy="188.119" rx="196.831" ry="196.831"></ellipse>
  <path style="fill:#F0E0FF;" d="M383.913,127.972c0,17.667-14.309,31.992-31.992,31.992c-17.668,0-31.992-14.325-31.992-31.992
	c0-17.668,14.324-31.993,31.992-31.993C369.604,95.979,383.913,110.304,383.913,127.972z"></path>
    <path style="fill:#FFCE54;" d="M329.831,74.656c0,5.89-4.779,10.67-10.668,10.67c-5.891,0-10.67-4.78-10.67-10.67
		s4.779-10.669,10.67-10.669C325.051,63.987,329.831,68.766,329.831,74.656z"></path>
    <path style="fill:#FFCE54;" d="M255.949,95.979c0,5.89-4.78,10.67-10.669,10.67s-10.662-4.78-10.662-10.67
		s4.772-10.653,10.662-10.653S255.949,90.089,255.949,95.979z"></path>
  <path style="fill:#F57C00;" d="M95.979,127.972l117.309,150.434v62.86c0,11.779,19.097,21.323,42.662,21.323
	c23.549,0,42.655-9.544,42.655-21.323v-62.86l117.301-150.434H95.979z"></path>
    <circle style="fill:#05ce78;" cx="170.632" cy="95.983" r="31.993"></circle>
    <circle style="fill:#5968df;" cx="266.612" cy="31.993" r="31.993"></circle>
</svg>