<?xml version="1.0" standalone="yes"?>
<svg xmlns="http://www.w3.org/2000/svg" width="405" height="396">
<path style="fill:#f57c00; stroke:none;" d="M372 110C392.441 87.2378 403.165 29.9107 405 0C376.651 5.55832 348.532 10.2429 321 19.3352C316.409 20.8515 297.087 25.0628 296.323 30.5557C295.488 36.5672 310.118 47.1185 314 51C333.505 70.5054 352.488 90.4878 372 110z"/>
<path style="fill:#b0cadb; stroke:none;" d="M280 36.9026C265.069 39.2017 247.321 54.1196 235 62.3334C189.651 92.5657 151.63 134.546 124.882 182C118.694 192.978 91.6362 233.005 100.612 244.562C103.083 247.744 110.633 257.357 114.919 257.357C119.118 257.357 124.304 249.701 127 247C138.129 235.852 148.311 223.759 160 213.156C169.301 204.718 181.819 199.051 191.675 210.1C213.263 234.3 153.329 264.78 142.649 281.217C138.878 287.022 153.12 301.262 159.019 301.099C176.368 300.618 198.811 284.854 214 277.25C262.398 253.018 305.031 215.591 336.835 172C346.507 158.744 361.229 141.107 365.417 125C367.438 117.227 354.822 107.826 350 103C333.163 86.1483 316.835 68.8354 300 52C295.349 47.3492 287.483 35.7504 280 36.9026z"/>
<path style="fill:#f57c00; stroke:none;" d="M284 36L285 37L284 36M285 37L286 38L285 37M286 38L287 39L286 38M247 54L248 55L247 54M236 61L237 62L236 61M317 70L318 71L317 70M318 71L319 72L318 71M319 72L320 73L319 72M320 73L321 74L320 73M321 74L322 75L321 74M322 75L323 76L322 75M323 76L324 77L323 76M324 77L325 78L324 77M325 78L326 79L325 78M326 79L327 80L326 79M327 80L328 81L327 80M209 81L210 82L209 81M262 85L263 86L262 85z"/>
<path style="fill:#ffffff; stroke:none;" d="M263 85.4812C203.743 94.521 220.055 185.087 279 176.637C338.806 168.063 322.206 76.4492 263 85.4812z"/>
<path style="fill:#f57c00; stroke:none;" d="M284 86L285 87L284 86M202 87L203 88L202 87M201 88L202 89L201 88M295 91L296 92L295 91M298 93L299 94L298 93M194 94L195 95L194 94M193 95L194 96L193 95M264 95.5243C217.25 103.797 232.503 175.151 279 166.465C324.662 157.934 309.626 87.4508 264 95.5243M192 96L193 97L192 96M191 97L192 98L191 97M190 98L191 99L190 98M308 103L309 104L308 103M310 106L311 107L310 106M176 112L177 113L176 112M175 113L176 114L175 113M174 114L175 115L174 114M314 114L315 115L314 114M360 114L361 115L360 114M173 115L174 116L173 115M361 115L362 116L361 115M362 116L363 117L362 116M363 117L364 118L363 117M226 118L227 119L226 118M364 118L365 119L364 118M365 119L366 120L365 119M366 120L367 121L366 120M166 123L167 124L166 123M165 124L166 125L165 124M156 135L157 136L156 135M153 139L154 140L153 139M150 143L151 144L150 143M147 147L148 148L147 147M230 153L231 154L230 153M348 154L349 155L348 154M234 159L235 160L234 159M138 160L139 161L138 160M136 163L137 164L136 163M304 163L305 164L304 163M340 166L341 167L340 166M298 168L299 169L298 168M335 173L336 174L335 173M56 239C78.9894 221.828 108.737 210.907 120 184C91.8183 184.013 57.9135 209.241 56 239M324 187L325 188L324 187M319 193L320 194L319 193M312 201L313 202L312 201M311 202L312 203L311 202M310 203L311 204L310 203M188 206L189 207L188 206M162 210L163 211L162 210M161 211L162 212L161 211M193 211L194 212L193 211M77 322L78 323C108.553 299.048 137.792 272.43 167 246.823C173.693 240.955 195.93 224.732 183.674 214.811C172.776 205.989 158.406 227.186 152.573 234C127.43 263.371 102.309 292.772 77 322M291 222L292 223L291 222M290 223L291 224L290 223M289 224L290 225L289 224M103 225L104 226L103 225M143 229L144 230L143 229M142 230L143 231L142 230M194 230L195 231L194 230M141 231L142 232L141 231M281 231L282 232L281 231M140 232L141 233L140 232M139 233L140 234L139 233M138 234L139 235L138 234M137 235L138 236L137 235M275 236L276 237L275 236M98 237L99 238L98 237M270 240L271 241L270 240M266 243L267 244L266 243M146 306C108.891 340.063 77.1625 359.16 27 369C32.6418 351.196 36.3083 333.294 43.7159 316C49.0735 303.492 55.932 291.928 64.0354 281C68.0054 275.646 93.2233 255.029 90.8943 250.011C84.5507 236.343 62.3498 259.773 57.0001 265.019C32.3407 289.197 17.18 320.912 8.36874 354C6.83419 359.763 -4.60583 391.905 2.52004 394.961C10.6895 398.464 27.7944 392.175 36 390.124C68.4006 382.024 100.462 369.665 126 347.543C137.457 337.619 159.883 320.165 146 306M102 246L103 247L102 246M262 246L263 247L262 246M103 247L104 248L103 247M104 248L105 249L104 248M105 249L106 250L105 249M106 250L107 251L106 250M107 251L108 252L107 251M108 252L109 253L108 252M109 253L110 254L109 253M172 253L173 254L172 253M110 254L111 255L110 254M119 254L120 255L119 254M171 254L172 255L171 254M111 255L112 256L111 255M118 255L119 256L118 255M170 255L171 256L170 255M117 256L118 257L117 256M169 256L170 257L169 256M238 267C231.441 272.43 221.156 276.201 215.819 282.704C211.378 288.115 211.537 299.371 208.222 306C202.938 316.569 193.404 323.849 188 334C208.734 330.771 253.23 291.335 238 267M229 268L230 269L229 268M155 269L156 270L155 269M154 270L155 271L154 270M146 277L147 278L146 277M145 278L146 279L145 278M144 289L145 290L144 289M145 290L146 291L145 290M146 291L147 292L146 291M147 292L148 293L147 292M148 293L149 294L148 293M179 293L180 294L179 293M149 294L150 295L149 294M150 295L151 296L150 295M151 296L152 297L151 296M152 297L153 298L152 297M164 299L165 300L164 299z"/>
</svg>
