<?xml version="1.0" standalone="no"?>
<!DOCTYPE svg PUBLIC "-//W3C//DTD SVG 20010904//EN"
 "http://www.w3.org/TR/2001/REC-SVG-20010904/DTD/svg10.dtd">
<svg version="1.0" xmlns="http://www.w3.org/2000/svg"
 width="800.000000pt" height="800.000000pt" viewBox="0 0 800.000000 800.000000"
 preserveAspectRatio="xMidYMid meet">
<metadata>
Created by potrace 1.14, written by Peter Selinger 2001-2017
</metadata>
<g transform="translate(0.000000,800.000000) scale(0.100000,-0.100000)"
fill="#000000" stroke="none">
<path d="M3654 7915 c-933 -85 -1815 -509 -2467 -1185 -488 -507 -827 -1123
-993 -1807 -75 -310 -108 -592 -108 -923 0 -246 12 -405 50 -635 146 -896 602
-1719 1284 -2319 519 -457 1157 -772 1835 -905 291 -57 390 -66 760 -65 370 0
482 9 760 65 1358 270 2466 1224 2938 2529 90 248 148 482 193 780 31 202 43
637 25 867 -103 1289 -838 2449 -1961 3092 -413 237 -856 394 -1325 472 -290
47 -690 61 -991 34z m788 -187 c190 -71 333 -218 399 -408 33 -94 34 -285 2
-385 -63 -198 -215 -351 -418 -421 -69 -23 -96 -27 -195 -27 -99 0 -126 4
-195 27 -199 68 -341 209 -413 408 -23 64 -26 89 -27 198 0 105 4 136 23 195
57 171 186 318 345 391 98 44 153 54 287 50 104 -2 136 -7 192 -28z m-2005
-1254 c137 -28 266 -102 358 -206 57 -65 130 -212 146 -296 17 -88 6 -261 -20
-335 -65 -185 -218 -337 -405 -404 l-61 -21 1416 -1 1416 -1 11 81 c36 250
219 461 467 535 43 13 92 18 175 18 99 0 126 -4 198 -28 241 -81 416 -298 439
-543 l6 -63 316 -2 c205 -2 315 -7 312 -13 -3 -8 -1415 -1822 -2193 -2819
l-148 -189 0 -655 c0 -655 0 -656 -22 -701 -67 -140 -284 -256 -573 -307 -125
-22 -389 -21 -520 1 -283 48 -498 164 -569 307 l-26 52 0 654 0 653 -637 817
c-350 449 -875 1122 -1165 1495 -291 372 -531 684 -534 692 -5 13 74 15 667
16 l674 0 -70 26 c-202 74 -357 246 -410 453 -21 82 -21 215 -1 303 78 335
416 551 753 481z m2961 -21 c59 -36 102 -114 102 -183 0 -141 -141 -248 -279
-210 -84 22 -161 123 -161 210 0 81 66 175 145 205 58 22 137 13 193 -22z
m-1515 -406 c151 -64 184 -258 62 -365 -49 -44 -73 -52 -150 -52 -54 0 -69 4
-111 33 -118 79 -131 240 -27 339 57 55 155 74 226 45z"/>
</g>
</svg>
