<?xml version="1.0" standalone="no"?>
<!DOCTYPE svg PUBLIC "-//W3C//DTD SVG 20010904//EN"
 "http://www.w3.org/TR/2001/REC-SVG-20010904/DTD/svg10.dtd">
<svg version="1.0" xmlns="http://www.w3.org/2000/svg"
 width="810.000000pt" height="810.000000pt" viewBox="0 0 810.000000 810.000000"
 preserveAspectRatio="xMidYMid meet">
<metadata>
Created by potrace 1.14, written by Peter Selinger 2001-2017
</metadata>
<g transform="translate(0.000000,810.000000) scale(0.100000,-0.100000)"
fill="#000000" stroke="none">
<path d="M8069 8006 c-2 -2 -22 -7 -44 -10 -22 -4 -56 -11 -75 -16 -19 -4 -53
-11 -75 -14 -22 -3 -51 -8 -65 -11 -14 -3 -34 -7 -45 -9 -11 -2 -29 -6 -40 -9
-11 -3 -37 -8 -58 -11 -21 -4 -71 -13 -110 -21 -40 -8 -83 -16 -97 -19 -14 -2
-45 -9 -70 -15 -25 -7 -54 -13 -65 -15 -11 -2 -39 -6 -62 -10 -24 -4 -45 -8
-48 -7 -2 0 -23 -6 -45 -14 -22 -8 -43 -14 -45 -14 -13 0 -86 -15 -135 -28
-30 -8 -66 -16 -79 -19 -49 -10 -357 -94 -376 -103 -20 -10 -86 -31 -108 -35
-23 -5 -102 -28 -212 -63 -205 -64 -293 -121 -286 -185 6 -65 76 -148 261
-308 83 -73 206 -196 647 -646 166 -170 370 -377 452 -461 l150 -152 43 50
c24 28 45 56 48 62 3 7 19 33 36 57 36 52 127 238 177 360 54 134 142 411 171
538 2 9 9 37 16 62 22 80 78 349 85 405 3 22 7 47 10 55 4 13 12 65 21 125 1
11 3 20 4 20 1 0 3 14 5 30 2 17 6 55 10 85 4 30 8 66 10 80 4 36 14 136 20
208 5 48 3 62 -8 62 -8 0 -16 -2 -18 -4z"/>
<path d="M5580 7268 c-93 -16 -315 -112 -394 -171 -44 -32 -179 -117 -186
-117 -4 0 -10 -4 -12 -8 -2 -6 -184 -140 -248 -182 -195 -129 -540 -386 -636
-475 -6 -5 -38 -32 -70 -60 -32 -27 -80 -70 -108 -95 -84 -75 -437 -429 -516
-519 -41 -46 -80 -89 -85 -95 -6 -6 -28 -33 -50 -61 -22 -27 -45 -54 -51 -60
-19 -17 -127 -155 -220 -280 -49 -66 -92 -121 -96 -123 -5 -2 -8 -8 -8 -13 0
-8 -67 -107 -80 -119 -6 -5 -125 -189 -165 -254 -54 -89 -298 -500 -339 -571
-16 -27 -34 -53 -40 -57 -6 -4 -8 -8 -3 -8 4 0 -5 -19 -19 -42 -41 -65 -169
-323 -207 -419 -68 -168 -88 -324 -50 -391 23 -42 104 -139 167 -201 49 -48
91 -75 128 -82 35 -7 90 30 158 105 36 40 99 107 140 150 41 43 122 129 180
191 206 222 456 465 533 516 112 75 174 97 277 97 105 1 159 -23 236 -100 126
-128 143 -274 52 -444 -71 -133 -229 -304 -438 -476 -19 -16 -52 -46 -75 -66
-22 -21 -43 -38 -47 -38 -5 0 -16 -8 -26 -18 -10 -9 -68 -57 -128 -107 -152
-125 -150 -124 -212 -185 -81 -81 -106 -122 -99 -165 7 -40 46 -125 59 -125 4
0 8 -6 8 -13 0 -21 139 -146 193 -174 46 -23 59 -25 122 -20 63 5 166 27 205
44 8 3 18 7 22 7 3 1 10 4 14 8 4 5 15 8 24 8 9 0 29 6 45 13 53 23 350 170
355 176 3 3 28 18 55 32 28 15 70 37 95 50 25 13 47 27 50 30 3 4 34 21 70 40
36 18 67 36 70 39 7 7 65 33 66 28 0 -1 7 2 15 8 8 6 59 35 114 65 55 29 117
63 137 76 21 13 42 23 48 23 5 0 10 4 10 9 0 5 9 12 20 16 11 3 66 35 122 70
57 36 120 74 141 85 20 11 37 25 37 30 0 6 4 10 9 10 22 0 362 246 520 375 89
74 208 175 250 213 161 146 311 293 486 476 29 31 137 152 187 211 30 35 102
121 127 150 9 11 52 67 96 125 44 58 83 107 86 110 3 3 27 37 54 75 28 39 60
81 72 95 13 14 26 33 29 43 3 9 8 17 12 17 4 0 18 18 32 40 14 22 28 40 32 40
5 0 8 7 8 15 0 8 3 15 8 15 4 0 18 17 32 38 14 20 27 39 30 42 26 25 190 297
223 370 38 83 56 130 64 159 12 51 11 128 -3 152 -7 13 -16 31 -20 39 -17 34
-73 99 -148 170 -153 146 -619 620 -1266 1288 -129 134 -190 166 -280 150z"/>
<path d="M2275 4323 c-53 -8 -137 -27 -200 -45 -70 -20 -256 -97 -265 -109 -3
-3 -20 -14 -39 -23 -40 -21 -157 -100 -178 -121 -8 -8 -17 -15 -21 -15 -23 0
-221 -213 -281 -302 -67 -100 -141 -271 -155 -360 -3 -21 -9 -54 -12 -73 -3
-19 -2 -35 2 -35 12 0 74 44 74 53 0 4 4 7 10 7 5 0 46 25 90 55 44 30 82 55
84 55 6 0 385 242 432 276 23 16 52 36 64 44 57 38 180 141 240 200 121 120
217 254 265 367 l14 33 -52 -2 c-29 -2 -61 -4 -72 -5z"/>
<path d="M3483 3740 c-71 -25 -142 -77 -222 -164 -20 -21 -46 -48 -57 -60 -12
-12 -50 -57 -84 -101 -34 -44 -65 -82 -69 -85 -3 -3 -26 -30 -51 -60 -25 -30
-56 -66 -69 -80 -13 -14 -40 -45 -60 -70 -20 -25 -45 -54 -56 -66 -11 -12 -34
-39 -52 -60 -18 -22 -44 -52 -58 -69 -14 -16 -45 -52 -68 -79 -55 -64 -123
-143 -156 -181 -14 -16 -48 -57 -76 -90 -52 -63 -94 -111 -135 -156 -14 -15
-38 -43 -55 -64 -53 -65 -66 -79 -93 -110 -15 -16 -50 -57 -77 -89 -28 -33
-61 -71 -74 -85 -13 -14 -37 -43 -55 -64 -17 -21 -41 -50 -53 -63 -13 -14 -23
-30 -23 -35 0 -6 -5 -7 -10 -4 -6 3 -10 3 -10 -2 0 -4 -15 -25 -33 -45 -17
-20 -41 -47 -51 -60 -11 -13 -59 -70 -108 -127 -66 -77 -86 -107 -78 -115 8
-8 15 -6 24 7 7 9 18 17 24 17 6 0 12 3 14 8 2 4 28 26 58 50 30 23 64 50 76
60 11 9 41 34 65 54 59 49 116 96 169 138 24 19 51 42 60 50 15 14 132 113
175 148 24 19 222 191 245 212 9 8 32 29 52 45 44 38 165 144 194 170 12 11
50 45 85 75 35 30 73 64 85 75 12 11 31 27 41 35 10 9 43 38 73 64 111 98 193
172 219 195 14 13 50 44 80 70 30 25 59 51 65 56 6 6 40 35 76 65 89 75 212
200 249 253 36 54 68 133 66 167 -3 42 -16 90 -26 90 -5 0 -9 6 -9 14 0 14
-83 75 -104 77 -56 6 -82 4 -123 -11z"/>
<path d="M1637 3084 c-41 -10 -154 -66 -167 -83 -3 -3 -30 -25 -60 -47 -98
-73 -318 -285 -420 -405 -30 -35 -63 -71 -72 -80 -10 -9 -18 -21 -18 -27 0 -6
-3 -12 -7 -14 -23 -9 -197 -257 -264 -373 -19 -33 -39 -69 -46 -80 -6 -11 -20
-36 -29 -55 -10 -19 -22 -38 -27 -41 -5 -3 -9 -9 -8 -12 0 -4 -22 -54 -50
-112 -27 -57 -49 -107 -48 -110 0 -4 -6 -16 -14 -28 -8 -12 -20 -40 -27 -62
-7 -22 -16 -42 -19 -45 -7 -6 -37 -88 -93 -255 -22 -66 -44 -129 -48 -140 -5
-11 -24 -76 -43 -145 -20 -69 -50 -172 -67 -230 -70 -236 -99 -373 -104 -484
-5 -137 31 -168 187 -162 51 3 108 7 127 11 19 3 42 7 50 9 18 3 31 6 254 68
99 27 189 50 200 53 12 2 21 4 21 5 0 1 8 3 17 5 39 7 276 79 349 105 44 16
79 26 79 23 0 -3 6 -1 13 4 6 6 39 20 72 31 115 40 296 117 445 192 107 54
246 130 290 160 14 9 33 20 43 23 9 4 17 11 17 17 0 5 5 10 12 10 6 0 26 11
44 25 18 14 37 25 42 25 6 0 12 3 14 8 2 4 46 39 98 79 52 40 107 83 121 95
14 13 50 43 78 68 252 217 369 354 411 485 16 47 22 141 11 164 -63 131 -75
140 -129 89 -55 -51 -75 -70 -132 -118 -29 -25 -57 -49 -64 -55 -47 -41 -89
-76 -233 -190 -152 -121 -434 -309 -595 -396 -100 -53 -221 -113 -303 -149
-55 -23 -120 -52 -145 -63 -25 -11 -49 -20 -55 -22 -5 -1 -23 -8 -40 -14 -16
-7 -38 -14 -47 -16 -9 -2 -26 -9 -37 -15 -12 -6 -21 -8 -21 -4 0 3 -6 2 -12
-3 -25 -20 -403 -125 -533 -149 -16 -3 -48 -9 -70 -14 -22 -5 -40 -8 -41 -7
-2 2 125 446 156 550 12 37 22 76 23 87 1 11 5 20 9 20 4 0 8 10 8 23 0 13 3
27 7 31 5 4 9 12 9 17 1 5 3 11 4 14 1 3 3 8 4 13 46 176 194 504 314 697 18
28 39 65 49 83 9 17 20 32 25 32 4 0 8 4 8 9 0 5 26 47 57 93 39 57 129 155
288 313 224 223 245 246 292 324 31 50 29 73 -12 114 -40 40 -80 48 -148 31z"/>
<path d="M4588 2556 c-178 -111 -247 -165 -286 -221 -22 -33 -57 -130 -66
-180 -2 -17 -5 -30 -6 -30 -1 0 -3 -11 -5 -25 -3 -22 -21 -99 -29 -125 -11
-37 -48 -118 -69 -150 -22 -36 -90 -130 -108 -150 -10 -11 -51 -60 -91 -110
-40 -49 -77 -95 -83 -102 -5 -7 -15 -19 -22 -27 -6 -7 -9 -17 -6 -20 4 -3 1
-6 -5 -6 -7 0 -12 -7 -12 -15 0 -8 -3 -15 -7 -15 -5 0 -13 -11 -19 -24 -11
-23 -10 -24 19 -19 41 6 117 36 202 80 68 35 250 154 270 177 6 6 27 24 48 40
40 29 203 190 247 241 13 17 48 64 77 105 29 41 56 80 61 85 4 6 23 44 43 85
89 183 103 330 46 465 l-22 53 -177 -112z"/>
</g>
</svg>
