<?xml version="1.0" standalone="no"?>
<!DOCTYPE svg PUBLIC "-//W3C//DTD SVG 20010904//EN"
 "http://www.w3.org/TR/2001/REC-SVG-20010904/DTD/svg10.dtd">
<svg version="1.0" xmlns="http://www.w3.org/2000/svg"
 width="28.000000pt" height="28.000000pt" viewBox="0 0 840.000000 889.000000"
 preserveAspectRatio="xMidYMid meet">

<g transform="translate(0.000000,889.000000) scale(0.100000,-0.100000)"
fill="#ffffff" stroke="none">
<path d="M4085 8481 c-111 -6 -125 -9 -183 -40 -72 -39 -130 -98 -166 -169
l-25 -49 -98 -6 c-130 -9 -300 -40 -449 -82 -861 -242 -1528 -957 -1709 -1832
-38 -184 -45 -297 -45 -696 l0 -391 -214 -666 c-118 -366 -389 -1203 -601
-1860 l-386 -1195 3 -90 c3 -78 7 -99 35 -156 38 -78 102 -141 176 -174 58
-26 431 -122 741 -190 794 -174 1586 -276 2445 -315 l244 -11 87 -60 c116 -79
155 -92 265 -93 104 -1 149 16 278 103 l76 51 233 10 c828 36 1598 133 2388
301 297 64 751 179 807 206 71 33 140 104 177 183 28 58 31 75 31 155 l-1 90
-248 765 c-136 421 -404 1251 -596 1845 l-348 1080 -5 430 c-5 468 -10 529
-68 764 -45 182 -91 307 -179 486 -300 613 -845 1070 -1503 1259 -124 36 -335
75 -451 84 l-100 7 -31 53 c-68 116 -162 182 -285 202 -68 10 -100 10 -295 1z
m304 -265 c15 -8 37 -28 47 -43 18 -27 19 -73 22 -1518 2 -1404 1 -1492 -15
-1524 -35 -68 -56 -76 -227 -79 -175 -4 -212 5 -246 60 -20 33 -20 46 -20
1533 0 1661 -6 1524 64 1566 27 16 51 19 189 19 118 0 165 -4 186 -14z m-699
-1572 c0 -1259 -1 -1326 -17 -1319 -86 36 -215 76 -283 89 -112 22 -492 22
-612 1 -92 -16 -232 -62 -313 -102 -193 -97 -385 -283 -488 -473 -20 -36 -248
-589 -507 -1230 -724 -1786 -930 -2293 -934 -2298 -3 -2 -14 1 -25 7 -26 14
-51 62 -51 97 0 29 -7 7 283 904 113 349 363 1125 557 1723 l351 1088 9 467
c8 432 11 476 33 592 46 234 99 394 197 590 275 549 786 965 1374 1120 120 31
308 64 399 69 l27 1 0 -1326z m1245 1300 c495 -81 955 -339 1283 -719 232
-270 399 -601 476 -947 42 -190 48 -267 55 -723 l7 -440 598 -1845 c552 -1707
596 -1848 587 -1881 -12 -41 -57 -87 -71 -73 -5 5 -68 155 -140 334 -332 819
-691 1703 -955 2355 -158 391 -300 739 -316 774 -74 163 -237 355 -386 454
-102 68 -247 134 -360 164 -91 25 -116 27 -353 31 -231 3 -265 2 -360 -18 -58
-12 -144 -37 -191 -56 -48 -19 -89 -34 -93 -34 -3 0 -6 597 -6 1326 l0 1326
68 -7 c37 -3 107 -13 157 -21z m-1514 -2797 c47 -14 137 -51 200 -81 104 -50
117 -60 147 -106 35 -54 90 -99 162 -134 42 -19 61 -21 270 -21 223 0 225 0
282 27 64 30 146 101 172 150 15 27 40 43 142 91 202 94 237 101 519 101 260
1 305 -5 443 -61 186 -74 352 -220 446 -393 14 -25 99 -227 189 -450 258 -637
654 -1612 912 -2250 131 -322 255 -627 276 -679 21 -51 39 -97 39 -101 0 -4
-33 -14 -72 -23 -40 -9 -149 -34 -243 -56 -527 -123 -1142 -223 -1715 -280
-211 -21 -612 -52 -617 -47 -3 3 560 377 588 390 14 6 28 0 60 -28 144 -123
371 -107 510 36 169 174 125 470 -87 589 l-53 30 366 547 c202 301 373 563
380 583 22 66 -14 137 -83 159 -45 15 -94 -1 -131 -44 -15 -17 -205 -298 -422
-624 -217 -326 -397 -592 -401 -592 -3 0 -256 295 -560 656 l-555 655 -5 157
c-5 147 -7 161 -33 214 -39 79 -104 143 -185 181 -61 29 -76 32 -162 32 -88 0
-101 -3 -162 -33 -83 -41 -158 -120 -189 -200 -18 -46 -23 -86 -28 -207 l-6
-150 -547 -647 c-301 -356 -552 -649 -558 -653 -5 -3 -194 271 -419 609 -226
339 -422 623 -436 632 -53 35 -141 15 -175 -41 -44 -71 -52 -56 351 -661 204
-306 373 -563 376 -570 3 -8 -1 -14 -9 -14 -24 0 -110 -67 -150 -117 -108
-136 -101 -351 16 -481 82 -90 206 -140 321 -128 67 7 186 59 224 100 l23 24
299 -201 c164 -110 298 -202 296 -203 -5 -5 -417 27 -655 51 -591 61 -1191
162 -1752 294 -118 28 -218 51 -222 51 -5 0 -8 6 -8 13 0 8 99 258 221 558
121 299 360 888 531 1309 171 421 382 943 470 1160 88 217 178 429 201 470 55
99 205 251 304 309 182 108 295 131 598 127 203 -3 227 -5 306 -29z m852
-1642 c44 -31 57 -66 57 -152 l0 -83 -125 0 -125 0 0 89 c0 75 3 92 22 116 41
53 119 66 171 30z m683 -1145 c307 -364 561 -665 563 -671 1 -5 -2 -23 -9 -40
l-12 -29 -1294 0 -1293 0 -16 31 c-16 29 -15 32 7 60 13 16 266 317 563 669
l540 639 196 0 196 1 559 -660z m-2343 -759 c56 -37 77 -97 54 -152 -22 -52
-50 -72 -112 -77 -51 -4 -56 -3 -89 30 -42 42 -54 91 -32 141 28 69 119 98
179 58z m3297 4 c65 -34 89 -109 55 -175 -41 -80 -172 -79 -219 0 -33 57 -15
128 43 167 39 27 80 29 121 8z m-610 -240 c0 -9 -1022 -687 -1057 -701 -18 -8
-45 -12 -61 -8 -29 6 -1071 694 -1072 707 0 4 493 7 1095 7 602 0 1095 -2
1095 -5z"/>
<path d="M5031 7633 c-48 -24 -76 -88 -62 -141 15 -54 45 -78 142 -111 46 -15
116 -43 154 -60 89 -41 142 -39 189 8 27 28 31 38 31 87 0 51 -3 58 -36 88
-24 22 -81 51 -168 85 -156 61 -202 69 -250 44z"/>
<path d="M5713 7254 c-55 -27 -84 -95 -63 -149 6 -16 57 -76 113 -135 123
-128 217 -257 292 -405 66 -128 85 -151 136 -166 31 -10 43 -9 75 7 83 41 96
106 46 216 -79 175 -210 363 -362 522 -120 125 -164 146 -237 110z"/>
<path d="M2960 4919 c-295 -31 -569 -228 -699 -502 -48 -102 -64 -170 -63
-264 2 -218 145 -409 356 -476 69 -21 83 -22 516 -22 432 0 447 1 515 22 246
77 388 304 357 569 -20 177 -93 327 -221 455 -187 186 -423 254 -761 218z
m332 -260 c225 -47 398 -257 398 -483 0 -117 -51 -200 -150 -245 -43 -20 -64
-21 -465 -20 -325 0 -428 3 -458 13 -136 49 -200 198 -147 340 33 86 117 203
185 259 74 59 184 114 267 132 77 16 298 19 370 4z"/>
<path d="M5165 4924 c-340 -36 -603 -258 -685 -579 -25 -97 -27 -239 -4 -316
49 -166 169 -293 334 -351 63 -22 79 -22 462 -26 242 -2 432 1 485 7 258 31
453 249 453 506 0 195 -150 451 -346 591 -85 60 -214 119 -315 144 -83 20
-296 33 -384 24z m368 -282 c172 -63 300 -173 376 -325 39 -76 45 -95 44 -150
0 -34 -7 -78 -15 -98 -24 -55 -78 -110 -133 -135 -50 -24 -51 -24 -466 -24
-450 0 -463 1 -533 55 -41 31 -84 109 -92 168 -9 66 12 172 52 254 60 126 185
229 325 268 84 23 364 15 442 -13z"/>
<path d="M2229 3377 c-58 -39 -76 -106 -44 -167 32 -62 14 -60 689 -60 l614 0
31 25 c52 45 61 114 22 174 -33 51 -36 51 -679 51 l-599 0 -34 -23z"/>
<path d="M4915 3390 c-66 -27 -95 -121 -56 -183 11 -18 32 -39 46 -45 19 -9
192 -12 640 -12 l613 0 31 25 c52 44 61 114 23 173 -34 53 -24 52 -674 51
-332 0 -612 -4 -623 -9z"/>
<path d="M4154 2626 c-17 -7 -40 -26 -52 -41 -22 -27 -22 -34 -22 -387 0 -394
1 -403 60 -433 61 -32 128 -14 167 44 23 34 23 36 23 378 0 373 -3 393 -54
427 -38 24 -85 29 -122 12z"/>
<path d="M3512 2240 c-66 -30 -74 -58 -70 -257 l3 -165 37 -34 c30 -27 46 -34
78 -34 23 0 54 7 70 15 53 27 60 56 60 244 0 167 0 170 -26 200 -14 17 -42 35
-62 41 -46 12 -39 13 -90 -10z"/>
<path d="M4783 2240 c-65 -33 -73 -61 -73 -243 0 -144 2 -156 23 -188 39 -57
106 -76 166 -45 60 31 66 54 66 236 0 142 -3 170 -18 193 -39 60 -101 78 -164
47z"/>
</g>
</svg>
